<?xml version="1.0" encoding="utf-8"?>
<!-- Generator: Adobe Illustrator 18.1.1, SVG Export Plug-In . SVG Version: 6.00 Build 0)  -->
<svg version="1.1" id="Camada_2" xmlns="http://www.w3.org/2000/svg" xmlns:xlink="http://www.w3.org/1999/xlink" x="0px" y="0px"
	 viewBox="0 595.3 750 750" enable-background="new 0 595.3 750 750" xml:space="preserve">
<circle fill="#ACAABE" cx="375" cy="970.3" r="375"/>
<g>
	<g>
		<path fill="#FFFFFF" d="M225.3,869.8l-10.4,9.9c-7.5-7.4-15.7-13-24.6-16.8c-8.9-3.8-17.6-5.7-26.1-5.7c-10.5,0-20.6,2.6-30.1,7.8
			c-9.5,5.2-16.9,12.2-22.2,21.1c-5.2,8.9-7.9,18.2-7.9,28.1c0,10.1,2.7,19.7,8.1,28.8c5.4,9.1,12.9,16.3,22.5,21.5
			c9.6,5.2,20.1,7.8,31.5,7.8c13.8,0,25.5-3.9,35.1-11.7c9.6-7.8,15.2-17.9,17-30.4h-42.9v-13h58c-0.1,20.8-6.3,37.3-18.5,49.5
			c-12.2,12.2-28.6,18.3-49.1,18.3c-24.9,0-44.6-8.5-59.1-25.4c-11.2-13-16.7-28.1-16.7-45.3c0-12.7,3.2-24.6,9.6-35.6
			c6.4-11,15.2-19.6,26.3-25.7c11.2-6.2,23.8-9.3,37.9-9.3c11.4,0,22.1,2.1,32.2,6.2C206,854.1,215.8,860.7,225.3,869.8z"/>
		<path fill="#FFFFFF" d="M253.7,847.2h26.8c14.9,0,25.1,0.6,30.4,1.8c8,1.8,14.5,5.8,19.5,11.8c5,6,7.5,13.4,7.5,22.2
			c0,7.3-1.7,13.8-5.2,19.3c-3.4,5.6-8.4,9.7-14.8,12.6c-6.4,2.8-15.2,4.3-26.5,4.3l48.4,62.5h-16.6l-48.4-62.5h-7.6v62.5h-13.4
			V847.2z M267.2,860.4v45.7l23.2,0.2c9,0,15.6-0.9,19.9-2.6c4.3-1.7,7.7-4.4,10.1-8.2c2.4-3.7,3.6-7.9,3.6-12.6
			c0-4.5-1.2-8.6-3.7-12.3c-2.4-3.7-5.6-6.3-9.6-7.9c-4-1.6-10.6-2.4-19.8-2.4H267.2z"/>
		<path fill="#FFFFFF" d="M419.8,847.2l62.7,134.5H468l-21.2-44.3h-57.9l-21,44.3h-15l63.5-134.5H419.8z M418.1,875.8l-23,48.7h46
			L418.1,875.8z"/>
		<path fill="#FFFFFF" d="M452.4,847.2H467l44.6,103.9l45.3-103.9h14.6L513,981.7h-2.9L452.4,847.2z"/>
		<path fill="#FFFFFF" d="M583,847.2h77.1v13.2h-63.6v42.2h63.1v13.2h-63.1v52.9h63.1v13.2H583V847.2z"/>
	</g>
	<g>
		<path fill="#FFFFFF" d="M193.4,1126.5l12.9-90h1.5l36.6,73.8l36.2-73.8h1.4l12.9,90h-8.8l-8.9-64.4l-31.8,64.4h-2.3l-32.2-64.8
			l-8.8,64.8H193.4z"/>
		<path fill="#FFFFFF" d="M309.8,1036.5h9v54.3c0,6.4,0.1,10.5,0.4,12.1c0.4,3.5,1.5,6.5,3.1,8.9c1.6,2.4,4.1,4.4,7.5,6
			c3.4,1.6,6.8,2.4,10.2,2.4c3,0,5.8-0.6,8.6-1.9c2.7-1.3,5-3,6.9-5.3c1.8-2.2,3.2-5,4-8.1c0.6-2.3,0.9-7,0.9-14.1v-54.3h9v54.3
			c0,8-0.8,14.5-2.4,19.5c-1.6,5-4.7,9.3-9.4,12.9c-4.7,3.7-10.4,5.5-17.1,5.5c-7.3,0-13.5-1.7-18.7-5.2c-5.2-3.5-8.6-8.1-10.4-13.8
			c-1.1-3.5-1.7-9.8-1.7-19V1036.5z"/>
		<path fill="#FFFFFF" d="M379.1,1109.8l7.6-4.6c5.4,9.9,11.6,14.9,18.7,14.9c3,0,5.9-0.7,8.5-2.1c2.7-1.4,4.7-3.3,6.1-5.7
			c1.4-2.4,2.1-4.9,2.1-7.5c0-3-1-6-3.1-8.9c-2.8-4-8-8.8-15.4-14.4c-7.5-5.7-12.2-9.8-14-12.3c-3.2-4.2-4.8-8.8-4.8-13.8
			c0-3.9,0.9-7.5,2.8-10.7c1.9-3.2,4.5-5.8,7.9-7.6c3.4-1.9,7.1-2.8,11.1-2.8c4.2,0,8.2,1.1,11.9,3.2c3.7,2.1,7.6,6,11.7,11.6
			l-7.3,5.6c-3.4-4.5-6.3-7.4-8.7-8.9c-2.4-1.4-5-2.1-7.8-2.1c-3.6,0-6.6,1.1-8.9,3.3c-2.3,2.2-3.5,4.9-3.5,8.1c0,2,0.4,3.9,1.2,5.7
			c0.8,1.8,2.3,3.8,4.5,6c1.2,1.1,5.1,4.1,11.6,9c7.8,5.8,13.1,10.9,16,15.4c2.9,4.5,4.3,9,4.3,13.5c0,6.5-2.5,12.2-7.4,17
			c-5,4.8-11,7.2-18.1,7.2c-5.5,0-10.4-1.5-14.9-4.4C386.9,1121.5,382.8,1116.6,379.1,1109.8z"/>
		<path fill="#FFFFFF" d="M446.3,1036.5h9v90h-9V1036.5z"/>
		<path fill="#FFFFFF" d="M556.6,1053.2l-7.1,5.4c-3.9-5.1-8.6-9-14.1-11.6c-5.5-2.6-11.5-3.9-18.1-3.9c-7.2,0-13.8,1.7-19.9,5.2
			c-6.1,3.4-10.9,8.1-14.2,13.9s-5,12.3-5,19.6c0,11,3.8,20.1,11.3,27.5c7.5,7.3,17,11,28.5,11c12.6,0,23.1-4.9,31.6-14.8l7.1,5.4
			c-4.5,5.7-10.1,10.1-16.8,13.2c-6.7,3.1-14.2,4.7-22.5,4.7c-15.7,0-28.2-5.2-37.3-15.7c-7.6-8.8-11.4-19.5-11.4-32.1
			c0-13.2,4.6-24.3,13.9-33.2c9.2-9,20.8-13.5,34.7-13.5c8.4,0,16,1.7,22.8,5C546.8,1042.6,552.3,1047.2,556.6,1053.2z"/>
	</g>
</g>
</svg>
